# Created by 3DAce v2.72


g
v 0.195090 0.000000 0.980785
v 0.382683 0.000000 0.923879
v 0.555570 0.000000 0.831470
v 0.707107 0.000000 0.707107
v 0.831470 0.000000 0.555570
v 0.923879 0.000000 0.382683
v 0.980785 0.000000 -0.195090
v 0.923880 0.000000 -0.382683
v 0.831470 0.000000 -0.555570
v 0.707107 0.000000 -0.707107
v 0.555570 0.000000 -0.831470
v 0.382683 0.000000 -0.923880
v -0.195091 0.000000 -0.980785
v -0.382684 0.000000 -0.923879
v -0.555571 0.000000 -0.831469
v -0.707107 0.000000 -0.707106
v -0.831470 0.000000 -0.555570
v -0.923880 0.000000 -0.382683
v -0.980785 0.000000 0.195091
v -0.923879 0.000000 0.382684
v -0.831469 0.000000 0.555571
v -0.707106 0.000000 0.707108
v -0.555569 0.000000 0.831470
v -0.382682 0.000000 0.923880
v 0.195090 0.000000 0.980785
v 0.382683 0.000000 0.923879
v 0.555570 0.000000 0.831470
v 0.707107 0.000000 0.707107
v 0.831470 0.000000 0.555570
v 0.923879 0.000000 0.382683
v 0.980785 0.000000 -0.195090
v 0.923880 0.000000 -0.382683
v 0.831470 0.000000 -0.555570
v 0.707107 0.000000 -0.707107
v 0.555570 0.000000 -0.831470
v 0.382683 0.000000 -0.923880
v -0.195091 0.000000 -0.980785
v -0.382684 0.000000 -0.923879
v -0.555571 0.000000 -0.831469
v -0.707107 0.000000 -0.707106
v -0.831470 0.000000 -0.555570
v -0.923880 0.000000 -0.382683
v -0.980785 0.000000 0.195091
v -0.923879 0.000000 0.382684
v -0.831469 0.000000 0.555571
v -0.707106 0.000000 0.707108
v -0.555569 0.000000 0.831470
v -0.382682 0.000000 0.923880
v 0.156072 0.000000 0.784628
v 0.306147 0.000000 0.739104
v 0.444456 0.000000 0.665176
v 0.565685 0.000000 0.565685
v 0.665176 0.000000 0.444456
v 0.739104 0.000000 0.306147
v 0.784628 0.000000 -0.156072
v 0.739104 0.000000 -0.306147
v 0.665176 0.000000 -0.444456
v 0.565685 0.000000 -0.565685
v 0.444456 0.000000 -0.665176
v 0.306147 0.000000 -0.739104
v -0.156073 0.000000 -0.784628
v -0.306147 0.000000 -0.739103
v -0.444457 0.000000 -0.665175
v -0.565686 0.000000 -0.565685
v -0.665176 0.000000 -0.444456
v -0.739104 0.000000 -0.306146
v -0.784628 0.000000 0.156073
v -0.739103 0.000000 0.306148
v -0.665175 0.000000 0.444457
v -0.565685 0.000000 0.565686
v -0.444455 0.000000 0.665176
v -0.306146 0.000000 0.739104
v 0.156072 0.000000 0.784628
v 0.306147 0.000000 0.739104
v 0.444456 0.000000 0.665176
v 0.565685 0.000000 0.565685
v 0.665176 0.000000 0.444456
v 0.739104 0.000000 0.306147
v 0.784628 0.000000 -0.156072
v 0.739104 0.000000 -0.306147
v 0.665176 0.000000 -0.444456
v 0.565685 0.000000 -0.565685
v 0.444456 0.000000 -0.665176
v 0.306147 0.000000 -0.739104
v -0.156073 0.000000 -0.784628
v -0.306147 0.000000 -0.739103
v -0.444457 0.000000 -0.665175
v -0.565686 0.000000 -0.565685
v -0.665176 0.000000 -0.444456
v -0.739104 0.000000 -0.306146
v -0.784628 0.000000 0.156073
v -0.739103 0.000000 0.306148
v -0.665175 0.000000 0.444457
v -0.565685 0.000000 0.565686
v -0.444455 0.000000 0.665176
v -0.306146 0.000000 0.739104
# 96 vertices

vt 0.597540 0.990394
vt 0.691337 0.961942
vt 0.691337 0.961942
vt 0.597540 0.990394
vt 0.653069 0.869553
vt 0.578032 0.892315
vt 0.578032 0.892315
vt 0.653069 0.869553
vt 0.691337 0.961942
vt 0.777781 0.915738
vt 0.777781 0.915738
vt 0.691337 0.961942
vt 0.722225 0.832590
vt 0.653069 0.869553
vt 0.653069 0.869553
vt 0.722225 0.832590
vt 0.777781 0.915738
vt 0.853550 0.853557
vt 0.853550 0.853557
vt 0.777781 0.915738
vt 0.782840 0.782846
vt 0.722225 0.832590
vt 0.722225 0.832590
vt 0.782840 0.782846
vt 0.853550 0.853557
vt 0.915732 0.777790
vt 0.915732 0.777790
vt 0.853550 0.853557
vt 0.832585 0.722232
vt 0.782840 0.782846
vt 0.782840 0.782846
vt 0.832585 0.722232
vt 0.915732 0.777790
vt 0.961938 0.691347
vt 0.961938 0.691347
vt 0.915732 0.777790
vt 0.869550 0.653077
vt 0.832585 0.722232
vt 0.832585 0.722232
vt 0.869550 0.653077
vt 0.990394 0.402460
vt 0.961942 0.308663
vt 0.961942 0.308663
vt 0.990394 0.402460
vt 0.869553 0.346931
vt 0.892315 0.421968
vt 0.892315 0.421968
vt 0.869553 0.346931
vt 0.961942 0.308663
vt 0.915738 0.222219
vt 0.915738 0.222219
vt 0.961942 0.308663
vt 0.832590 0.277776
vt 0.869553 0.346931
vt 0.869553 0.346931
vt 0.832590 0.277776
vt 0.915738 0.222219
vt 0.853557 0.146450
vt 0.853557 0.146450
vt 0.915738 0.222219
vt 0.782846 0.217160
vt 0.832590 0.277776
vt 0.832590 0.277776
vt 0.782846 0.217160
vt 0.853557 0.146450
vt 0.777790 0.084268
vt 0.777790 0.084268
vt 0.853557 0.146450
vt 0.722232 0.167415
vt 0.782846 0.217160
vt 0.782846 0.217160
vt 0.722232 0.167415
vt 0.777790 0.084268
vt 0.691347 0.038062
vt 0.691347 0.038062
vt 0.777790 0.084268
vt 0.653077 0.130450
vt 0.722232 0.167415
vt 0.722232 0.167415
vt 0.653077 0.130450
vt 0.402460 0.009606
vt 0.308663 0.038058
vt 0.308663 0.038058
vt 0.402460 0.009606
vt 0.346930 0.130447
vt 0.421968 0.107685
vt 0.421968 0.107685
vt 0.346930 0.130447
vt 0.308663 0.038058
vt 0.222219 0.084262
vt 0.222219 0.084262
vt 0.308663 0.038058
vt 0.277775 0.167410
vt 0.346930 0.130447
vt 0.346930 0.130447
vt 0.277775 0.167410
vt 0.222219 0.084262
vt 0.146450 0.146443
vt 0.146450 0.146443
vt 0.222219 0.084262
vt 0.217160 0.217154
vt 0.277775 0.167410
vt 0.277775 0.167410
vt 0.217160 0.217154
vt 0.146450 0.146443
vt 0.084268 0.222211
vt 0.084268 0.222211
vt 0.146450 0.146443
vt 0.167414 0.277769
vt 0.217160 0.217154
vt 0.217160 0.217154
vt 0.167414 0.277769
vt 0.084268 0.222211
vt 0.038062 0.308654
vt 0.038062 0.308654
vt 0.084268 0.222211
vt 0.130450 0.346923
vt 0.167414 0.277769
vt 0.167414 0.277769
vt 0.130450 0.346923
vt 0.009606 0.597540
vt 0.038058 0.691337
vt 0.038058 0.691337
vt 0.009606 0.597540
vt 0.130447 0.653070
vt 0.107685 0.578032
vt 0.107685 0.578032
vt 0.130447 0.653070
vt 0.038058 0.691337
vt 0.084262 0.777781
vt 0.084262 0.777781
vt 0.038058 0.691337
vt 0.167410 0.722225
vt 0.130447 0.653070
vt 0.130447 0.653070
vt 0.167410 0.722225
vt 0.084262 0.777781
vt 0.146443 0.853550
vt 0.146443 0.853550
vt 0.084262 0.777781
vt 0.217155 0.782840
vt 0.167410 0.722225
vt 0.167410 0.722225
vt 0.217155 0.782840
vt 0.146443 0.853550
vt 0.222211 0.915732
vt 0.222211 0.915732
vt 0.146443 0.853550
vt 0.277769 0.832586
vt 0.217155 0.782840
vt 0.217155 0.782840
vt 0.277769 0.832586
vt 0.222211 0.915732
vt 0.308654 0.961938
vt 0.308654 0.961938
vt 0.222211 0.915732
vt 0.346923 0.869550
vt 0.277769 0.832586
vt 0.277769 0.832586
vt 0.346923 0.869550
vt 0.691337 0.961942
vt 0.653069 0.869553
vt 0.578032 0.892315
vt 0.597540 0.990394
vt 0.578032 0.892315
vt 0.653069 0.869553
vt 0.691337 0.961942
vt 0.597540 0.990394
vt 0.777781 0.915738
vt 0.722225 0.832590
vt 0.653069 0.869553
vt 0.691337 0.961942
vt 0.653069 0.869553
vt 0.722225 0.832590
vt 0.777781 0.915738
vt 0.691337 0.961942
vt 0.853550 0.853557
vt 0.782840 0.782846
vt 0.722225 0.832590
vt 0.777781 0.915738
vt 0.722225 0.832590
vt 0.782840 0.782846
vt 0.853550 0.853557
vt 0.777781 0.915738
vt 0.915732 0.777790
vt 0.832585 0.722232
vt 0.782840 0.782846
vt 0.853550 0.853557
vt 0.782840 0.782846
vt 0.832585 0.722232
vt 0.915732 0.777790
vt 0.853550 0.853557
vt 0.961938 0.691347
vt 0.869550 0.653077
vt 0.832585 0.722232
vt 0.915732 0.777790
vt 0.832585 0.722232
vt 0.869550 0.653077
vt 0.961938 0.691347
vt 0.915732 0.777790
vt 0.961942 0.308663
vt 0.869553 0.346931
vt 0.892315 0.421968
vt 0.990394 0.402460
vt 0.892315 0.421968
vt 0.869553 0.346931
vt 0.961942 0.308663
vt 0.990394 0.402460
vt 0.915738 0.222219
vt 0.832590 0.277776
vt 0.869553 0.346931
vt 0.961942 0.308663
vt 0.869553 0.346931
vt 0.832590 0.277776
vt 0.915738 0.222219
vt 0.961942 0.308663
vt 0.853557 0.146450
vt 0.782846 0.217160
vt 0.832590 0.277776
vt 0.915738 0.222219
vt 0.832590 0.277776
vt 0.782846 0.217160
vt 0.853557 0.146450
vt 0.915738 0.222219
vt 0.777790 0.084268
vt 0.722232 0.167415
vt 0.782846 0.217160
vt 0.853557 0.146450
vt 0.782846 0.217160
vt 0.722232 0.167415
vt 0.777790 0.084268
vt 0.853557 0.146450
vt 0.691347 0.038062
vt 0.653077 0.130450
vt 0.722232 0.167415
vt 0.777790 0.084268
vt 0.722232 0.167415
vt 0.653077 0.130450
vt 0.691347 0.038062
vt 0.777790 0.084268
vt 0.308663 0.038058
vt 0.346930 0.130447
vt 0.421968 0.107685
vt 0.402460 0.009606
vt 0.421968 0.107685
vt 0.346930 0.130447
vt 0.308663 0.038058
vt 0.402460 0.009606
vt 0.222219 0.084262
vt 0.277775 0.167410
vt 0.346930 0.130447
vt 0.308663 0.038058
vt 0.346930 0.130447
vt 0.277775 0.167410
vt 0.222219 0.084262
vt 0.308663 0.038058
vt 0.146450 0.146443
vt 0.217160 0.217154
vt 0.277775 0.167410
vt 0.222219 0.084262
vt 0.277775 0.167410
vt 0.217160 0.217154
vt 0.146450 0.146443
vt 0.222219 0.084262
vt 0.084268 0.222211
vt 0.167414 0.277769
vt 0.217160 0.217154
vt 0.146450 0.146443
vt 0.217160 0.217154
vt 0.167414 0.277769
vt 0.084268 0.222211
vt 0.146450 0.146443
vt 0.038062 0.308654
vt 0.130450 0.346923
vt 0.167414 0.277769
vt 0.084268 0.222211
vt 0.167414 0.277769
vt 0.130450 0.346923
vt 0.038062 0.308654
vt 0.084268 0.222211
vt 0.038058 0.691337
vt 0.130447 0.653070
vt 0.107685 0.578032
vt 0.009606 0.597540
vt 0.107685 0.578032
vt 0.130447 0.653070
vt 0.038058 0.691337
vt 0.009606 0.597540
vt 0.084262 0.777781
vt 0.167410 0.722225
vt 0.130447 0.653070
vt 0.038058 0.691337
vt 0.130447 0.653070
vt 0.167410 0.722225
vt 0.084262 0.777781
vt 0.038058 0.691337
vt 0.146443 0.853550
vt 0.217155 0.782840
vt 0.167410 0.722225
vt 0.084262 0.777781
vt 0.167410 0.722225
vt 0.217155 0.782840
vt 0.146443 0.853550
vt 0.084262 0.777781
vt 0.222211 0.915732
vt 0.277769 0.832586
vt 0.217155 0.782840
vt 0.146443 0.853550
vt 0.217155 0.782840
vt 0.277769 0.832586
vt 0.222211 0.915732
vt 0.146443 0.853550
vt 0.308654 0.961938
vt 0.346923 0.869550
vt 0.277769 0.832586
vt 0.222211 0.915732
vt 0.277769 0.832586
vt 0.346923 0.869550
vt 0.308654 0.961938
vt 0.222211 0.915732
# 320 texture vertices

vn 0.000000 -1.000000 0.000000
vn 0.000000 -1.000000 0.000000
vn 0.000000 1.000000 0.000000
vn 0.000000 1.000000 0.000000
vn 0.000000 -1.000000 0.000000
vn 0.000000 -1.000000 0.000000
vn 0.000000 1.000000 0.000000
vn 0.000000 1.000000 0.000000
vn 0.000000 -1.000000 0.000000
vn 0.000000 -1.000000 0.000000
vn 0.000000 1.000000 0.000000
vn 0.000000 1.000000 0.000000
vn 0.000000 -1.000000 0.000000
vn 0.000000 -1.000000 0.000000
vn 0.000000 1.000000 0.000000
vn 0.000000 1.000000 0.000000
vn 0.000000 -1.000000 0.000000
vn 0.000000 -1.000000 0.000000
vn 0.000000 1.000000 0.000000
vn 0.000000 1.000000 0.000000
vn 0.000000 -1.000000 0.000000
vn 0.000000 -1.000000 0.000000
vn 0.000000 1.000000 0.000000
vn 0.000000 1.000000 0.000000
vn 0.000000 -1.000000 0.000000
vn 0.000000 -1.000000 0.000000
vn 0.000000 1.000000 0.000000
vn 0.000000 1.000000 0.000000
vn 0.000000 -1.000000 0.000000
vn 0.000000 -1.000000 0.000000
vn 0.000000 1.000000 0.000000
vn 0.000000 1.000000 0.000000
vn 0.000000 -1.000000 0.000000
vn 0.000000 -1.000000 0.000000
vn 0.000000 1.000000 0.000000
vn 0.000000 1.000000 0.000000
vn 0.000000 -1.000000 0.000000
vn 0.000000 -1.000000 0.000000
vn 0.000000 1.000000 0.000000
vn 0.000000 1.000000 0.000000
vn 0.000000 -1.000000 0.000000
vn 0.000000 -1.000000 0.000000
vn 0.000000 1.000000 0.000000
vn 0.000000 1.000000 0.000000
vn 0.000000 -1.000000 0.000000
vn 0.000000 -1.000000 0.000000
vn 0.000000 1.000000 0.000000
vn 0.000000 1.000000 0.000000
vn 0.000000 -1.000000 0.000000
vn 0.000000 -1.000000 0.000000
vn 0.000000 1.000000 0.000000
vn 0.000000 1.000000 0.000000
vn 0.000000 -1.000000 0.000000
vn 0.000000 -1.000000 0.000000
vn 0.000000 1.000000 0.000000
vn 0.000000 1.000000 0.000000
vn 0.000000 -1.000000 0.000000
vn 0.000000 -1.000000 0.000000
vn 0.000000 1.000000 0.000000
vn 0.000000 1.000000 0.000000
vn 0.000000 -1.000000 0.000000
vn 0.000000 -1.000000 0.000000
vn 0.000000 1.000000 0.000000
vn 0.000000 1.000000 0.000000
vn 0.000000 -1.000000 0.000000
vn 0.000000 -1.000000 0.000000
vn 0.000000 1.000000 0.000000
vn 0.000000 1.000000 0.000000
vn 0.000000 -1.000000 0.000000
vn 0.000000 -1.000000 0.000000
vn 0.000000 1.000000 0.000000
vn 0.000000 1.000000 0.000000
vn 0.000000 -1.000000 0.000000
vn 0.000000 -1.000000 0.000000
vn 0.000000 1.000000 0.000000
vn 0.000000 1.000000 0.000000
vn 0.000000 -1.000000 0.000000
vn 0.000000 -1.000000 0.000000
vn 0.000000 1.000000 0.000000
vn 0.000000 1.000000 0.000000
vn 0.000000 -1.000000 0.000000
vn 0.000000 -1.000000 0.000000
vn 0.000000 1.000000 0.000000
vn 0.000000 1.000000 0.000000
vn 0.000000 -1.000000 0.000000
vn 0.000000 -1.000000 0.000000
vn 0.000000 1.000000 0.000000
vn 0.000000 1.000000 0.000000
vn 0.000000 -1.000000 0.000000
vn 0.000000 -1.000000 0.000000
vn 0.000000 1.000000 0.000000
vn 0.000000 1.000000 0.000000
vn 0.000000 -1.000000 0.000000
vn 0.000000 -1.000000 0.000000
vn 0.000000 1.000000 0.000000
vn 0.000000 1.000000 0.000000
vn 0.000000 -1.000000 0.000000
vn 0.000000 -1.000000 0.000000
vn 0.000000 1.000000 0.000000
vn 0.000000 1.000000 0.000000
vn 0.000000 -1.000000 0.000000
vn 0.000000 -1.000000 0.000000
vn 0.000000 1.000000 0.000000
vn 0.000000 1.000000 0.000000
vn 0.000000 -1.000000 0.000000
vn 0.000000 -1.000000 0.000000
vn 0.000000 1.000000 0.000000
vn 0.000000 1.000000 0.000000
vn 0.000000 -1.000000 0.000000
vn 0.000000 -1.000000 0.000000
vn 0.000000 1.000000 0.000000
vn 0.000000 1.000000 0.000000
vn 0.000000 -1.000000 0.000000
vn 0.000000 -1.000000 0.000000
vn 0.000000 1.000000 0.000000
vn 0.000000 1.000000 0.000000
vn 0.000000 -1.000000 0.000000
vn 0.000000 -1.000000 0.000000
vn 0.000000 1.000000 0.000000
vn 0.000000 1.000000 0.000000
vn 0.000000 -1.000000 0.000000
vn 0.000000 -1.000000 0.000000
vn 0.000000 1.000000 0.000000
vn 0.000000 1.000000 0.000000
vn 0.000000 -1.000000 0.000000
vn 0.000000 -1.000000 0.000000
vn 0.000000 1.000000 0.000000
vn 0.000000 1.000000 0.000000
vn 0.000000 -1.000000 0.000000
vn 0.000000 -1.000000 0.000000
vn 0.000000 1.000000 0.000000
vn 0.000000 1.000000 0.000000
vn 0.000000 -1.000000 0.000000
vn 0.000000 -1.000000 0.000000
vn 0.000000 1.000000 0.000000
vn 0.000000 1.000000 0.000000
vn 0.000000 -1.000000 0.000000
vn 0.000000 -1.000000 0.000000
vn 0.000000 1.000000 0.000000
vn 0.000000 1.000000 0.000000
vn 0.000000 -1.000000 0.000000
vn 0.000000 -1.000000 0.000000
vn 0.000000 1.000000 0.000000
vn 0.000000 1.000000 0.000000
vn 0.000000 -1.000000 0.000000
vn 0.000000 -1.000000 0.000000
vn 0.000000 1.000000 0.000000
vn 0.000000 1.000000 0.000000
vn 0.000000 -1.000000 0.000000
vn 0.000000 -1.000000 0.000000
vn 0.000000 1.000000 0.000000
vn 0.000000 1.000000 0.000000
vn 0.000000 -1.000000 0.000000
vn 0.000000 -1.000000 0.000000
vn 0.000000 1.000000 0.000000
vn 0.000000 1.000000 0.000000
vn 0.000000 -1.000000 0.000000
vn 0.000000 -1.000000 0.000000
vn 0.000000 1.000000 0.000000
vn 0.000000 1.000000 0.000000
vn 0.000000 1.000000 0.000000
vn 0.000000 1.000000 0.000000
vn 0.000000 1.000000 0.000000
vn 0.000000 1.000000 0.000000
vn 0.000000 -1.000000 0.000000
vn 0.000000 -1.000000 0.000000
vn 0.000000 -1.000000 0.000000
vn 0.000000 -1.000000 0.000000
vn 0.000000 1.000000 0.000000
vn 0.000000 1.000000 0.000000
vn 0.000000 1.000000 0.000000
vn 0.000000 1.000000 0.000000
vn 0.000000 -1.000000 0.000000
vn 0.000000 -1.000000 0.000000
vn 0.000000 -1.000000 0.000000
vn 0.000000 -1.000000 0.000000
vn 0.000000 1.000000 0.000000
vn 0.000000 1.000000 0.000000
vn 0.000000 1.000000 0.000000
vn 0.000000 1.000000 0.000000
vn 0.000000 -1.000000 0.000000
vn 0.000000 -1.000000 0.000000
vn 0.000000 -1.000000 0.000000
vn 0.000000 -1.000000 0.000000
vn 0.000000 1.000000 0.000000
vn 0.000000 1.000000 0.000000
vn 0.000000 1.000000 0.000000
vn 0.000000 1.000000 0.000000
vn 0.000000 -1.000000 0.000000
vn 0.000000 -1.000000 0.000000
vn 0.000000 -1.000000 0.000000
vn 0.000000 -1.000000 0.000000
vn 0.000000 1.000000 0.000000
vn 0.000000 1.000000 0.000000
vn 0.000000 1.000000 0.000000
vn 0.000000 1.000000 0.000000
vn 0.000000 -1.000000 0.000000
vn 0.000000 -1.000000 0.000000
vn 0.000000 -1.000000 0.000000
vn 0.000000 -1.000000 0.000000
vn 0.000000 1.000000 0.000000
vn 0.000000 1.000000 0.000000
vn 0.000000 1.000000 0.000000
vn 0.000000 1.000000 0.000000
vn 0.000000 -1.000000 0.000000
vn 0.000000 -1.000000 0.000000
vn 0.000000 -1.000000 0.000000
vn 0.000000 -1.000000 0.000000
vn 0.000000 1.000000 0.000000
vn 0.000000 1.000000 0.000000
vn 0.000000 1.000000 0.000000
vn 0.000000 1.000000 0.000000
vn 0.000000 -1.000000 0.000000
vn 0.000000 -1.000000 0.000000
vn 0.000000 -1.000000 0.000000
vn 0.000000 -1.000000 0.000000
vn 0.000000 1.000000 0.000000
vn 0.000000 1.000000 0.000000
vn 0.000000 1.000000 0.000000
vn 0.000000 1.000000 0.000000
vn 0.000000 -1.000000 0.000000
vn 0.000000 -1.000000 0.000000
vn 0.000000 -1.000000 0.000000
vn 0.000000 -1.000000 0.000000
vn 0.000000 1.000000 0.000000
vn 0.000000 1.000000 0.000000
vn 0.000000 1.000000 0.000000
vn 0.000000 1.000000 0.000000
vn 0.000000 -1.000000 0.000000
vn 0.000000 -1.000000 0.000000
vn 0.000000 -1.000000 0.000000
vn 0.000000 -1.000000 0.000000
vn 0.000000 1.000000 0.000000
vn 0.000000 1.000000 0.000000
vn 0.000000 1.000000 0.000000
vn 0.000000 1.000000 0.000000
vn 0.000000 -1.000000 0.000000
vn 0.000000 -1.000000 0.000000
vn 0.000000 -1.000000 0.000000
vn 0.000000 -1.000000 0.000000
vn 0.000000 1.000000 0.000000
vn 0.000000 1.000000 0.000000
vn 0.000000 1.000000 0.000000
vn 0.000000 1.000000 0.000000
vn 0.000000 -1.000000 0.000000
vn 0.000000 -1.000000 0.000000
vn 0.000000 -1.000000 0.000000
vn 0.000000 -1.000000 0.000000
vn 0.000000 1.000000 0.000000
vn 0.000000 1.000000 0.000000
vn 0.000000 1.000000 0.000000
vn 0.000000 1.000000 0.000000
vn 0.000000 -1.000000 0.000000
vn 0.000000 -1.000000 0.000000
vn 0.000000 -1.000000 0.000000
vn 0.000000 -1.000000 0.000000
vn 0.000000 1.000000 0.000000
vn 0.000000 1.000000 0.000000
vn 0.000000 1.000000 0.000000
vn 0.000000 1.000000 0.000000
vn 0.000000 -1.000000 0.000000
vn 0.000000 -1.000000 0.000000
vn 0.000000 -1.000000 0.000000
vn 0.000000 -1.000000 0.000000
vn 0.000000 1.000000 0.000000
vn 0.000000 1.000000 0.000000
vn 0.000000 1.000000 0.000000
vn 0.000000 1.000000 0.000000
vn 0.000000 -1.000000 0.000000
vn 0.000000 -1.000000 0.000000
vn 0.000000 -1.000000 0.000000
vn 0.000000 -1.000000 0.000000
vn 0.000000 1.000000 0.000000
vn 0.000000 1.000000 0.000000
vn 0.000000 1.000000 0.000000
vn 0.000000 1.000000 0.000000
vn 0.000000 -1.000000 0.000000
vn 0.000000 -1.000000 0.000000
vn 0.000000 -1.000000 0.000000
vn 0.000000 -1.000000 0.000000
vn 0.000000 1.000000 0.000000
vn 0.000000 1.000000 0.000000
vn 0.000000 1.000000 0.000000
vn 0.000000 1.000000 0.000000
vn 0.000000 -1.000000 0.000000
vn 0.000000 -1.000000 0.000000
vn 0.000000 -1.000000 0.000000
vn 0.000000 -1.000000 0.000000
vn 0.000000 1.000000 0.000000
vn 0.000000 1.000000 0.000000
vn 0.000000 1.000000 0.000000
vn 0.000000 1.000000 0.000000
vn 0.000000 -1.000000 0.000000
vn 0.000000 -1.000000 0.000000
vn 0.000000 -1.000000 0.000000
vn 0.000000 -1.000000 0.000000
vn 0.000000 1.000000 0.000000
vn 0.000000 1.000000 0.000000
vn 0.000000 1.000000 0.000000
vn 0.000000 1.000000 0.000000
vn 0.000000 -1.000000 0.000000
vn 0.000000 -1.000000 0.000000
vn 0.000000 -1.000000 0.000000
vn 0.000000 -1.000000 0.000000
vn 0.000000 1.000000 0.000000
vn 0.000000 1.000000 0.000000
vn 0.000000 1.000000 0.000000
vn 0.000000 1.000000 0.000000
vn 0.000000 -1.000000 0.000000
vn 0.000000 -1.000000 0.000000
vn 0.000000 -1.000000 0.000000
vn 0.000000 -1.000000 0.000000
vn 0.000000 1.000000 0.000000
vn 0.000000 1.000000 0.000000
vn 0.000000 1.000000 0.000000
vn 0.000000 1.000000 0.000000
vn 0.000000 -1.000000 0.000000
vn 0.000000 -1.000000 0.000000
vn 0.000000 -1.000000 0.000000
vn 0.000000 -1.000000 0.000000
# 320 vertex normals

g mat1
f 25/1/1 26/2/2 2/3/3 1/4/4
f 74/5/5 73/6/6 49/7/7 50/8/8
f 26/9/9 27/10/10 3/11/11 2/12/12
f 75/13/13 74/14/14 50/15/15 51/16/16
f 27/17/17 28/18/18 4/19/19 3/20/20
f 76/21/21 75/22/22 51/23/23 52/24/24
f 28/25/25 29/26/26 5/27/27 4/28/28
f 77/29/29 76/30/30 52/31/31 53/32/32
f 29/33/33 30/34/34 6/35/35 5/36/36
f 78/37/37 77/38/38 53/39/39 54/40/40
f 31/41/41 32/42/42 8/43/43 7/44/44
f 80/45/45 79/46/46 55/47/47 56/48/48
f 32/49/49 33/50/50 9/51/51 8/52/52
f 81/53/53 80/54/54 56/55/55 57/56/56
f 33/57/57 34/58/58 10/59/59 9/60/60
f 82/61/61 81/62/62 57/63/63 58/64/64
f 34/65/65 35/66/66 11/67/67 10/68/68
f 83/69/69 82/70/70 58/71/71 59/72/72
f 35/73/73 36/74/74 12/75/75 11/76/76
f 84/77/77 83/78/78 59/79/79 60/80/80
f 37/81/81 38/82/82 14/83/83 13/84/84
f 86/85/85 85/86/86 61/87/87 62/88/88
f 38/89/89 39/90/90 15/91/91 14/92/92
f 87/93/93 86/94/94 62/95/95 63/96/96
f 39/97/97 40/98/98 16/99/99 15/100/100
f 88/101/101 87/102/102 63/103/103 64/104/104
f 40/105/105 41/106/106 17/107/107 16/108/108
f 89/109/109 88/110/110 64/111/111 65/112/112
f 41/113/113 42/114/114 18/115/115 17/116/116
f 90/117/117 89/118/118 65/119/119 66/120/120
f 43/121/121 44/122/122 20/123/123 19/124/124
f 92/125/125 91/126/126 67/127/127 68/128/128
f 44/129/129 45/130/130 21/131/131 20/132/132
f 93/133/133 92/134/134 68/135/135 69/136/136
f 45/137/137 46/138/138 22/139/139 21/140/140
f 94/141/141 93/142/142 69/143/143 70/144/144
f 46/145/145 47/146/146 23/147/147 22/148/148
f 95/149/149 94/150/150 70/151/151 71/152/152
f 47/153/153 48/154/154 24/155/155 23/156/156
f 96/157/157 95/158/158 71/159/159 72/160/160
f 2/161/161 50/162/162 49/163/163 1/164/164
f 73/165/165 74/166/166 26/167/167 25/168/168
f 3/169/169 51/170/170 50/171/171 2/172/172
f 74/173/173 75/174/174 27/175/175 26/176/176
f 4/177/177 52/178/178 51/179/179 3/180/180
f 75/181/181 76/182/182 28/183/183 27/184/184
f 5/185/185 53/186/186 52/187/187 4/188/188
f 76/189/189 77/190/190 29/191/191 28/192/192
f 6/193/193 54/194/194 53/195/195 5/196/196
f 77/197/197 78/198/198 30/199/199 29/200/200
f 8/201/201 56/202/202 55/203/203 7/204/204
f 79/205/205 80/206/206 32/207/207 31/208/208
f 9/209/209 57/210/210 56/211/211 8/212/212
f 80/213/213 81/214/214 33/215/215 32/216/216
f 10/217/217 58/218/218 57/219/219 9/220/220
f 81/221/221 82/222/222 34/223/223 33/224/224
f 11/225/225 59/226/226 58/227/227 10/228/228
f 82/229/229 83/230/230 35/231/231 34/232/232
f 12/233/233 60/234/234 59/235/235 11/236/236
f 83/237/237 84/238/238 36/239/239 35/240/240
f 14/241/241 62/242/242 61/243/243 13/244/244
f 85/245/245 86/246/246 38/247/247 37/248/248
f 15/249/249 63/250/250 62/251/251 14/252/252
f 86/253/253 87/254/254 39/255/255 38/256/256
f 16/257/257 64/258/258 63/259/259 15/260/260
f 87/261/261 88/262/262 40/263/263 39/264/264
f 17/265/265 65/266/266 64/267/267 16/268/268
f 88/269/269 89/270/270 41/271/271 40/272/272
f 18/273/273 66/274/274 65/275/275 17/276/276
f 89/277/277 90/278/278 42/279/279 41/280/280
f 20/281/281 68/282/282 67/283/283 19/284/284
f 91/285/285 92/286/286 44/287/287 43/288/288
f 21/289/289 69/290/290 68/291/291 20/292/292
f 92/293/293 93/294/294 45/295/295 44/296/296
f 22/297/297 70/298/298 69/299/299 21/300/300
f 93/301/301 94/302/302 46/303/303 45/304/304
f 23/305/305 71/306/306 70/307/307 22/308/308
f 94/309/309 95/310/310 47/311/311 46/312/312
f 24/313/313 72/314/314 71/315/315 23/316/316
f 95/317/317 96/318/318 48/319/319 47/320/320
# 80 elements