# 3ds Max Wavefront OBJ Exporter v0.97b - (c)2007 guruware
# File Created: 14.06.2015 03:24:03

#
# object Box001
#

v  -0.4685 0.0000 0.3571
v  -0.4685 0.0000 -0.3888
v  0.5148 0.0000 -0.3888
v  0.5148 0.0000 0.3571
v  -0.4685 1.8776 0.3571
v  0.5148 1.8776 0.3571
v  0.5148 1.8776 -0.3888
v  -0.4685 1.8776 -0.3888
v  0.0062 0.0000 -0.0045
v  0.5719 0.0000 -0.4791
v  0.7001 0.0000 -0.2570
v  0.7447 0.0000 -0.0045
v  0.1344 0.0000 -0.7317
v  0.3754 0.0000 -0.6440
v  -0.3631 0.0000 -0.6440
v  -0.1221 0.0000 -0.7317
v  -0.6878 0.0000 -0.2570
v  -0.5595 0.0000 -0.4791
v  -0.6878 0.0000 0.2481
v  -0.7323 0.0000 -0.0045
v  -0.3631 0.0000 0.6351
v  -0.5595 0.0000 0.4702
v  0.1344 0.0000 0.7228
v  -0.1221 0.0000 0.7228
v  0.5719 0.0000 0.4702
v  0.3754 0.0000 0.6351
v  0.7001 0.0000 0.2481
v  0.7001 0.0153 -0.2570
v  0.7447 0.0153 -0.0045
v  0.5719 0.0153 -0.4791
v  0.3754 0.0153 -0.6440
v  0.1344 0.0153 -0.7317
v  -0.1221 0.0153 -0.7317
v  -0.3631 0.0153 -0.6440
v  -0.5595 0.0153 -0.4791
v  -0.6878 0.0153 -0.2570
v  -0.7323 0.0153 -0.0045
v  -0.6878 0.0153 0.2481
v  -0.5595 0.0153 0.4702
v  -0.3631 0.0153 0.6351
v  -0.1221 0.0153 0.7228
v  0.1344 0.0153 0.7228
v  0.3754 0.0153 0.6351
v  0.5719 0.0153 0.4702
v  0.7001 0.0153 0.2481
v  0.7001 0.0305 -0.2570
v  0.7447 0.0305 -0.0045
v  0.5719 0.0305 -0.4791
v  0.3754 0.0305 -0.6440
v  0.1344 0.0305 -0.7317
v  -0.1221 0.0305 -0.7317
v  -0.3631 0.0305 -0.6440
v  -0.5595 0.0305 -0.4791
v  -0.6878 0.0305 -0.2570
v  -0.7323 0.0305 -0.0045
v  -0.6878 0.0305 0.2481
v  -0.5595 0.0305 0.4702
v  -0.3631 0.0305 0.6351
v  -0.1221 0.0305 0.7228
v  0.1344 0.0305 0.7228
v  0.3754 0.0305 0.6351
v  0.5719 0.0305 0.4702
v  0.7001 0.0305 0.2481
v  0.7001 0.0458 -0.2570
v  0.7447 0.0458 -0.0045
v  0.5719 0.0458 -0.4791
v  0.3754 0.0458 -0.6440
v  0.1344 0.0458 -0.7317
v  -0.1221 0.0458 -0.7317
v  -0.3631 0.0458 -0.6440
v  -0.5595 0.0458 -0.4791
v  -0.6878 0.0458 -0.2570
v  -0.7323 0.0458 -0.0045
v  -0.6878 0.0458 0.2481
v  -0.5595 0.0458 0.4702
v  -0.3631 0.0458 0.6351
v  -0.1221 0.0458 0.7228
v  0.1344 0.0458 0.7228
v  0.3754 0.0458 0.6351
v  0.5719 0.0458 0.4702
v  0.7001 0.0458 0.2481
v  0.7001 0.0610 -0.2570
v  0.7447 0.0610 -0.0045
v  0.5719 0.0610 -0.4791
v  0.3754 0.0610 -0.6440
v  0.1344 0.0610 -0.7317
v  -0.1221 0.0610 -0.7317
v  -0.3631 0.0610 -0.6440
v  -0.5595 0.0610 -0.4791
v  -0.6878 0.0610 -0.2570
v  -0.7323 0.0610 -0.0045
v  -0.6878 0.0610 0.2481
v  -0.5595 0.0610 0.4702
v  -0.3631 0.0610 0.6351
v  -0.1221 0.0610 0.7228
v  0.1344 0.0610 0.7228
v  0.3754 0.0610 0.6351
v  0.5719 0.0610 0.4702
v  0.7001 0.0610 0.2481
v  0.7001 0.0763 -0.2570
v  0.7447 0.0763 -0.0045
v  0.5719 0.0763 -0.4791
v  0.3754 0.0763 -0.6440
v  0.1344 0.0763 -0.7317
v  -0.1221 0.0763 -0.7317
v  -0.3631 0.0763 -0.6440
v  -0.5595 0.0763 -0.4791
v  -0.6878 0.0763 -0.2570
v  -0.7323 0.0763 -0.0045
v  -0.6878 0.0763 0.2481
v  -0.5595 0.0763 0.4702
v  -0.3631 0.0763 0.6351
v  -0.1221 0.0763 0.7228
v  0.1344 0.0763 0.7228
v  0.3754 0.0763 0.6351
v  0.5719 0.0763 0.4702
v  0.7001 0.0763 0.2481
v  0.0062 0.0763 -0.0045
# 118 vertices

vn 0.0000 -1.0000 -0.0000
vn 0.0000 1.0000 -0.0000
vn 0.0000 0.0000 1.0000
vn 1.0000 0.0000 -0.0000
vn 0.0000 0.0000 -1.0000
vn -1.0000 0.0000 -0.0000
vn 1.0000 0.0000 0.0000
vn 0.9397 0.0000 -0.3420
vn 0.7660 0.0000 -0.6428
vn 0.5000 0.0000 -0.8660
vn 0.1736 0.0000 -0.9848
vn -0.1736 0.0000 -0.9848
vn -0.5000 0.0000 -0.8660
vn -0.7660 0.0000 -0.6428
vn -0.9397 0.0000 -0.3420
vn -0.9397 0.0000 0.3420
vn -0.7660 0.0000 0.6428
vn -0.5000 0.0000 0.8660
vn -0.1736 0.0000 0.9848
vn 0.1736 0.0000 0.9848
vn 0.5000 0.0000 0.8660
vn 0.7660 0.0000 0.6428
vn 0.9397 0.0000 0.3420
# 23 vertex normals

vt 1.0000 0.0000 0.0000
vt 1.0000 1.0000 0.0000
vt 0.0000 1.0000 0.0000
vt 0.0000 0.0000 0.0000
vt 0.5000 0.0000 0.0000
vt 0.8611 0.0000 1.0000
vt 0.8056 0.0000 1.0000
vt 0.7500 0.0000 1.0000
vt 0.9722 0.0000 1.0000
vt 0.9167 0.0000 1.0000
vt 0.0833 0.0000 1.0000
vt 0.0278 0.0000 1.0000
vt -0.0278 0.0000 1.0000
vt 0.1944 0.0000 1.0000
vt 0.1389 0.0000 1.0000
vt 0.3056 0.0000 1.0000
vt 0.2500 0.0000 1.0000
vt 0.4167 0.0000 1.0000
vt 0.3611 0.0000 1.0000
vt 0.5278 0.0000 1.0000
vt 0.4722 0.0000 1.0000
vt 0.6389 0.0000 1.0000
vt 0.5833 0.0000 1.0000
vt 0.6944 0.0000 1.0000
vt 0.8056 0.2000 1.0000
vt 0.7500 0.2000 1.0000
vt 0.8611 0.2000 1.0000
vt 0.9167 0.2000 1.0000
vt 0.9722 0.2000 1.0000
vt 0.0278 0.2000 1.0000
vt -0.0278 0.2000 1.0000
vt 0.0833 0.2000 1.0000
vt 0.1389 0.2000 1.0000
vt 0.1944 0.2000 1.0000
vt 0.2500 0.2000 1.0000
vt 0.3056 0.2000 1.0000
vt 0.3611 0.2000 1.0000
vt 0.4167 0.2000 1.0000
vt 0.4722 0.2000 1.0000
vt 0.5278 0.2000 1.0000
vt 0.5833 0.2000 1.0000
vt 0.6389 0.2000 1.0000
vt 0.6944 0.2000 1.0000
vt 0.8056 0.4000 1.0000
vt 0.7500 0.4000 1.0000
vt 0.8611 0.4000 1.0000
vt 0.9167 0.4000 1.0000
vt 0.9722 0.4000 1.0000
vt 0.0278 0.4000 1.0000
vt -0.0278 0.4000 1.0000
vt 0.0833 0.4000 1.0000
vt 0.1389 0.4000 1.0000
vt 0.1944 0.4000 1.0000
vt 0.2500 0.4000 1.0000
vt 0.3056 0.4000 1.0000
vt 0.3611 0.4000 1.0000
vt 0.4167 0.4000 1.0000
vt 0.4722 0.4000 1.0000
vt 0.5278 0.4000 1.0000
vt 0.5833 0.4000 1.0000
vt 0.6389 0.4000 1.0000
vt 0.6944 0.4000 1.0000
vt 0.8056 0.6000 1.0000
vt 0.7500 0.6000 1.0000
vt 0.8611 0.6000 1.0000
vt 0.9167 0.6000 1.0000
vt 0.9722 0.6000 1.0000
vt 0.0278 0.6000 1.0000
vt -0.0278 0.6000 1.0000
vt 0.0833 0.6000 1.0000
vt 0.1389 0.6000 1.0000
vt 0.1944 0.6000 1.0000
vt 0.2500 0.6000 1.0000
vt 0.3056 0.6000 1.0000
vt 0.3611 0.6000 1.0000
vt 0.4167 0.6000 1.0000
vt 0.4722 0.6000 1.0000
vt 0.5278 0.6000 1.0000
vt 0.5833 0.6000 1.0000
vt 0.6389 0.6000 1.0000
vt 0.6944 0.6000 1.0000
vt 0.8056 0.8000 1.0000
vt 0.7500 0.8000 1.0000
vt 0.8611 0.8000 1.0000
vt 0.9167 0.8000 1.0000
vt 0.9722 0.8000 1.0000
vt 0.0278 0.8000 1.0000
vt -0.0278 0.8000 1.0000
vt 0.0833 0.8000 1.0000
vt 0.1389 0.8000 1.0000
vt 0.1944 0.8000 1.0000
vt 0.2500 0.8000 1.0000
vt 0.3056 0.8000 1.0000
vt 0.3611 0.8000 1.0000
vt 0.4167 0.8000 1.0000
vt 0.4722 0.8000 1.0000
vt 0.5278 0.8000 1.0000
vt 0.5833 0.8000 1.0000
vt 0.6389 0.8000 1.0000
vt 0.6944 0.8000 1.0000
vt 0.8056 1.0000 1.0000
vt 0.7500 1.0000 1.0000
vt 0.8611 1.0000 1.0000
vt 0.9167 1.0000 1.0000
vt 0.9722 1.0000 1.0000
vt 0.0278 1.0000 1.0000
vt -0.0278 1.0000 1.0000
vt 0.0833 1.0000 1.0000
vt 0.1389 1.0000 1.0000
vt 0.1944 1.0000 1.0000
vt 0.2500 1.0000 1.0000
vt 0.3056 1.0000 1.0000
vt 0.3611 1.0000 1.0000
vt 0.4167 1.0000 1.0000
vt 0.4722 1.0000 1.0000
vt 0.5278 1.0000 1.0000
vt 0.5833 1.0000 1.0000
vt 0.6389 1.0000 1.0000
vt 0.6944 1.0000 1.0000
vt 0.5000 1.0000 0.0000
vt -0.0197 1.0000 0.8794
# 121 texture coords

g Box001
s 2
f 1/1/1 2/2/1 3/3/1 4/4/1 
s 4
f 5/4/2 6/1/2 7/2/2 8/3/2 
s 8
f 1/4/3 4/1/3 6/2/3 5/3/3 
s 16
f 4/4/4 3/1/4 7/2/4 6/3/4 
s 32
f 3/4/5 2/1/5 8/2/5 7/3/5 
s 64
f 2/4/6 1/1/6 5/2/6 8/3/6 
s 1
f 9/5/1 10/6/1 11/7/1 12/8/1 
f 9/5/1 13/9/1 14/10/1 10/6/1 
f 9/5/1 15/11/1 16/12/1 13/13/1 
f 9/5/1 17/14/1 18/15/1 15/11/1 
f 9/5/1 19/16/1 20/17/1 17/14/1 
f 9/5/1 21/18/1 22/19/1 19/16/1 
f 9/5/1 23/20/1 24/21/1 21/18/1 
f 9/5/1 25/22/1 26/23/1 23/20/1 
f 9/5/1 12/8/1 27/24/1 25/22/1 
s 8
f 12/8/7 11/7/8 28/25/8 29/26/7 
f 11/7/8 10/6/9 30/27/9 28/25/8 
f 10/6/9 14/10/10 31/28/10 30/27/9 
f 14/10/10 13/9/11 32/29/11 31/28/10 
f 13/13/11 16/12/12 33/30/12 32/31/11 
f 16/12/12 15/11/13 34/32/13 33/30/12 
f 15/11/13 18/15/14 35/33/14 34/32/13 
f 18/15/14 17/14/15 36/34/15 35/33/14 
f 17/14/15 20/17/6 37/35/6 36/34/15 
f 20/17/6 19/16/16 38/36/16 37/35/6 
f 19/16/16 22/19/17 39/37/17 38/36/16 
f 22/19/17 21/18/18 40/38/18 39/37/17 
f 21/18/18 24/21/19 41/39/19 40/38/18 
f 24/21/19 23/20/20 42/40/20 41/39/19 
f 23/20/20 26/23/21 43/41/21 42/40/20 
f 26/23/21 25/22/22 44/42/22 43/41/21 
f 25/22/22 27/24/23 45/43/23 44/42/22 
f 27/24/23 12/8/7 29/26/7 45/43/23 
f 29/26/7 28/25/8 46/44/8 47/45/7 
f 28/25/8 30/27/9 48/46/9 46/44/8 
f 30/27/9 31/28/10 49/47/10 48/46/9 
f 31/28/10 32/29/11 50/48/11 49/47/10 
f 32/31/11 33/30/12 51/49/12 50/50/11 
f 33/30/12 34/32/13 52/51/13 51/49/12 
f 34/32/13 35/33/14 53/52/14 52/51/13 
f 35/33/14 36/34/15 54/53/15 53/52/14 
f 36/34/15 37/35/6 55/54/6 54/53/15 
f 37/35/6 38/36/16 56/55/16 55/54/6 
f 38/36/16 39/37/17 57/56/17 56/55/16 
f 39/37/17 40/38/18 58/57/18 57/56/17 
f 40/38/18 41/39/19 59/58/19 58/57/18 
f 41/39/19 42/40/20 60/59/20 59/58/19 
f 42/40/20 43/41/21 61/60/21 60/59/20 
f 43/41/21 44/42/22 62/61/22 61/60/21 
f 44/42/22 45/43/23 63/62/23 62/61/22 
f 45/43/23 29/26/7 47/45/7 63/62/23 
f 47/45/7 46/44/8 64/63/8 65/64/7 
f 46/44/8 48/46/9 66/65/9 64/63/8 
f 48/46/9 49/47/10 67/66/10 66/65/9 
f 49/47/10 50/48/11 68/67/11 67/66/10 
f 50/50/11 51/49/12 69/68/12 68/69/11 
f 51/49/12 52/51/13 70/70/13 69/68/12 
f 52/51/13 53/52/14 71/71/14 70/70/13 
f 53/52/14 54/53/15 72/72/15 71/71/14 
f 54/53/15 55/54/6 73/73/6 72/72/15 
f 55/54/6 56/55/16 74/74/16 73/73/6 
f 56/55/16 57/56/17 75/75/17 74/74/16 
f 57/56/17 58/57/18 76/76/18 75/75/17 
f 58/57/18 59/58/19 77/77/19 76/76/18 
f 59/58/19 60/59/20 78/78/20 77/77/19 
f 60/59/20 61/60/21 79/79/21 78/78/20 
f 61/60/21 62/61/22 80/80/22 79/79/21 
f 62/61/22 63/62/23 81/81/23 80/80/22 
f 63/62/23 47/45/7 65/64/7 81/81/23 
f 65/64/7 64/63/8 82/82/8 83/83/7 
f 64/63/8 66/65/9 84/84/9 82/82/8 
f 66/65/9 67/66/10 85/85/10 84/84/9 
f 67/66/10 68/67/11 86/86/11 85/85/10 
f 68/69/11 69/68/12 87/87/12 86/88/11 
f 69/68/12 70/70/13 88/89/13 87/87/12 
f 70/70/13 71/71/14 89/90/14 88/89/13 
f 71/71/14 72/72/15 90/91/15 89/90/14 
f 72/72/15 73/73/6 91/92/6 90/91/15 
f 73/73/6 74/74/16 92/93/16 91/92/6 
f 74/74/16 75/75/17 93/94/17 92/93/16 
f 75/75/17 76/76/18 94/95/18 93/94/17 
f 76/76/18 77/77/19 95/96/19 94/95/18 
f 77/77/19 78/78/20 96/97/20 95/96/19 
f 78/78/20 79/79/21 97/98/21 96/97/20 
f 79/79/21 80/80/22 98/99/22 97/98/21 
f 80/80/22 81/81/23 99/100/23 98/99/22 
f 81/81/23 65/64/7 83/83/7 99/100/23 
f 83/83/7 82/82/8 100/101/8 101/102/7 
f 82/82/8 84/84/9 102/103/9 100/101/8 
f 84/84/9 85/85/10 103/104/10 102/103/9 
f 85/85/10 86/86/11 104/105/11 103/104/10 
f 86/88/11 87/87/12 105/106/12 104/107/11 
f 87/87/12 88/89/13 106/108/13 105/106/12 
f 88/89/13 89/90/14 107/109/14 106/108/13 
f 89/90/14 90/91/15 108/110/15 107/109/14 
f 90/91/15 91/92/6 109/111/6 108/110/15 
f 91/92/6 92/93/16 110/112/16 109/111/6 
f 92/93/16 93/94/17 111/113/17 110/112/16 
f 93/94/17 94/95/18 112/114/18 111/113/17 
f 94/95/18 95/96/19 113/115/19 112/114/18 
f 95/96/19 96/97/20 114/116/20 113/115/19 
f 96/97/20 97/98/21 115/117/21 114/116/20 
f 97/98/21 98/99/22 116/118/22 115/117/21 
f 98/99/22 99/100/23 117/119/23 116/118/22 
f 99/100/23 83/83/7 101/102/7 117/119/23 
s 1
f 118/120/2 117/119/2 101/102/2 100/101/2 
f 118/120/2 100/101/2 102/103/2 103/104/2 
f 118/120/2 103/121/2 104/107/2 105/106/2 
f 118/120/2 105/106/2 106/108/2 107/109/2 
f 118/120/2 107/109/2 108/110/2 109/111/2 
f 118/120/2 109/111/2 110/112/2 111/113/2 
f 118/120/2 111/113/2 112/114/2 113/115/2 
f 118/120/2 113/115/2 114/116/2 115/117/2 
f 118/120/2 115/117/2 116/118/2 117/119/2 
# 114 polygons

